# xmcd CD database file
#
# Track frame offsets:
#	150
#	16200
#	29431
#	42685
#	53747
#	64954
#	81984
#	94386
#	105558
#	115092
#
# Disc length: 1732 seconds
#
# Revision: 1
# Processed by: cddbd v1.5.2PL0 Copyright (c) Steve Scherf et al.
# Submitted via: CDex 1.51
#
DISCID=8506c20a
DTITLE=Boxcar Willie - Super Hits
DYEAR=1900
DGENRE=Country
TTITLE0=From A Boxcar Door
TTITLE1="T" For Texas
TTITLE2=Country Music Nightmare
TTITLE3=Hobo's Lament
TTITLE4=Freight Train Blues
TTITLE5=Take Me Home
TTITLE6=Mister, Can You Spare a Dime
TTITLE7=Last Train To Heaven
TTITLE8=Hank, You Make Me Cry
TTITLE9=Train Medley
EXTD=
EXTT0=
EXTT1=
EXTT2=
EXTT3=
EXTT4=
EXTT5=
EXTT6=
EXTT7=
EXTT8=
EXTT9=
PLAYORDER=
